{
  "accessors": [
    {
      "bufferView": 2,
      "componentType": 5126,
      "count": 15066,
      "max": [32.941368103027344, 180.29296875, 176.69476318359375],
      "min": [-32.941368103027344, -0.20294857025146484, -176.69476318359375],
      "type": "VEC3"
    },
    {
      "bufferView": 2,
      "byteOffset": 180792,
      "componentType": 5126,
      "count": 15066,
      "max": [0.9998993277549744, 0.9999926090240479, 0.9997825026512146],
      "min": [-0.9999611377716064, -0.9999921321868896, -0.9999390840530396],
      "type": "VEC3"
    },
    {
      "bufferView": 1,
      "componentType": 5126,
      "count": 15066,
      "max": [0.9928680062294006, 0.9924101233482361],
      "min": [0.007310748100280762, 0.00728684663772583],
      "type": "VEC2"
    },
    {
      "bufferView": 1,
      "byteOffset": 120528,
      "componentType": 5126,
      "count": 15066,
      "max": [0.9928680062294006, 0.9924101233482361],
      "min": [0.007310748100280762, 0.00728684663772583],
      "type": "VEC2"
    },
    {
      "bufferView": 1,
      "byteOffset": 241056,
      "componentType": 5126,
      "count": 15066,
      "max": [0.9928680062294006, 0.9924101233482361],
      "min": [0.007310748100280762, 0.00728684663772583],
      "type": "VEC2"
    },
    {
      "bufferView": 0,
      "componentType": 5125,
      "count": 82158,
      "type": "SCALAR"
    }
  ],
  "asset": {
    "extras": {
      "author": "daniel.jibi (https://sketchfab.com/daniel.jibi)",
      "license": "CC-BY-4.0 (http://creativecommons.org/licenses/by/4.0/)",
      "source": "https://sketchfab.com/3d-models/tiger-10cf99350bfe4435a75868381a61abad",
      "title": "Tiger"
    },
    "generator": "Sketchfab-12.68.0",
    "version": "2.0"
  },
  "bufferViews": [
    {
      "buffer": 0,
      "byteLength": 328632,
      "name": "floatBufferViews",
      "target": 34963
    },
    {
      "buffer": 0,
      "byteLength": 361584,
      "byteOffset": 328632,
      "byteStride": 8,
      "name": "floatBufferViews",
      "target": 34962
    },
    {
      "buffer": 0,
      "byteLength": 361584,
      "byteOffset": 690216,
      "byteStride": 12,
      "name": "floatBufferViews",
      "target": 34962
    }
  ],
  "buffers": [
    {
      "byteLength": 1051800,
      "uri": "scene.bin"
    }
  ],
  "extensionsRequired": ["KHR_materials_pbrSpecularGlossiness"],
  "extensionsUsed": ["KHR_materials_pbrSpecularGlossiness"],
  "images": [
    {
      "uri": "material_diffuse.png"
    },
    {
      "uri": "material_specularGlossiness.png"
    }
  ],
  "materials": [
    {
      "doubleSided": true,
      "extensions": {
        "KHR_materials_pbrSpecularGlossiness": {
          "diffuseFactor": [1.0, 1.0, 1.0, 1.0],
          "diffuseTexture": {
            "index": 0
          },
          "glossinessFactor": 1.0,
          "specularFactor": [1.0, 1.0, 1.0],
          "specularGlossinessTexture": {
            "index": 1
          }
        }
      },
      "name": "material"
    }
  ],
  "meshes": [
    {
      "name": "Object_0",
      "primitives": [
        {
          "attributes": {
            "NORMAL": 1,
            "POSITION": 0,
            "TEXCOORD_0": 2,
            "TEXCOORD_1": 3,
            "TEXCOORD_2": 4
          },
          "indices": 5,
          "material": 0,
          "mode": 4
        }
      ]
    }
  ],
  "nodes": [
    {
      "children": [1],
      "matrix": [
        1.0, 0.0, 0.0, 0.0, 0.0, 2.220446049250313e-16, -1.0, 0.0, 0.0, 1.0,
        2.220446049250313e-16, 0.0, 0.0, 0.0, 0.0, 1.0
      ],
      "name": "Sketchfab_model"
    },
    {
      "children": [2],
      "name": "root"
    },
    {
      "children": [3],
      "matrix": [
        1.0, 0.0, 0.0, 0.0, 0.0, 2.220446049250313e-16, 1.0, 0.0, 0.0, -1.0,
        2.220446049250313e-16, 0.0, 0.0, 0.0, 0.0, 1.0
      ],
      "name": "GLTF_SceneRootNode"
    },
    {
      "children": [4],
      "name": "root_0"
    },
    {
      "children": [5],
      "matrix": [
        0.0019612933843844043, 0.0, 0.0020493398809727495, 0.0, 0.0,
        0.002836629282683134, 0.0, 0.0, -0.0020493398809727495, 0.0,
        0.0019612933843844043, 0.0, 0.0, -0.2554241120815277,
        0.5012185573577881, 1.0
      ],
      "name": "node_id30_1"
    },
    {
      "mesh": 0,
      "name": "Object_5"
    }
  ],
  "samplers": [
    {
      "magFilter": 9729,
      "minFilter": 9987,
      "wrapS": 10497,
      "wrapT": 10497
    }
  ],
  "scene": 0,
  "scenes": [
    {
      "name": "Sketchfab_Scene",
      "nodes": [0]
    }
  ],
  "textures": [
    {
      "sampler": 0,
      "source": 0
    },
    {
      "sampler": 0,
      "source": 1
    }
  ]
}
