{
  "accessors": [
    {
      "bufferView": 2,
      "componentType": 5126,
      "count": 24072,
      "max": [
        34.698265075683594,
        32.8188591003418,
        69.93419647216797
      ],
      "min": [
        -76.82654571533203,
        -0.21496379375457764,
        -18.338451385498047
      ],
      "type": "VEC3"
    },
    {
      "bufferView": 2,
      "byteOffset": 288864,
      "componentType": 5126,
      "count": 24072,
      "max": [
        0.9999897480010986,
        0.9999933838844299,
        0.999977707862854
      ],
      "min": [
        -0.9999271035194397,
        -0.9999793171882629,
        -0.9999943971633911
      ],
      "type": "VEC3"
    },
    {
      "bufferView": 3,
      "componentType": 5126,
      "count": 24072,
      "max": [
        0.9996218085289001,
        0.9999832510948181,
        0.9998956322669983,
        1.0
      ],
      "min": [
        -0.999747097492218,
        -0.9999534487724304,
        -0.9999139308929443,
        -1.0
      ],
      "type": "VEC4"
    },
    {
      "bufferView": 1,
      "componentType": 5126,
      "count": 24072,
      "max": [
        0.9943374991416931,
        0.9943156242370605
      ],
      "min": [
        0.0032464032992720604,
        0.003911316394805908
      ],
      "type": "VEC2"
    },
    {
      "bufferView": 1,
      "byteOffset": 192576,
      "componentType": 5126,
      "count": 24072,
      "max": [
        0.9943374991416931,
        0.9943156242370605
      ],
      "min": [
        0.0032464032992720604,
        0.003911316394805908
      ],
      "type": "VEC2"
    },
    {
      "bufferView": 1,
      "byteOffset": 385152,
      "componentType": 5126,
      "count": 24072,
      "max": [
        0.9943374991416931,
        0.9943156242370605
      ],
      "min": [
        0.0032464032992720604,
        0.003911316394805908
      ],
      "type": "VEC2"
    },
    {
      "bufferView": 1,
      "byteOffset": 577728,
      "componentType": 5126,
      "count": 24072,
      "max": [
        0.9943374991416931,
        0.9943156242370605
      ],
      "min": [
        0.0032464032992720604,
        0.003911316394805908
      ],
      "type": "VEC2"
    },
    {
      "bufferView": 1,
      "byteOffset": 770304,
      "componentType": 5126,
      "count": 24072,
      "max": [
        0.9943374991416931,
        0.9943156242370605
      ],
      "min": [
        0.0032464032992720604,
        0.003911316394805908
      ],
      "type": "VEC2"
    },
    {
      "bufferView": 0,
      "componentType": 5125,
      "count": 132942,
      "type": "SCALAR"
    }
  ],
  "asset": {
    "extras": {
      "author": "loopstation (https://sketchfab.com/loopstation)",
      "license": "CC-BY-4.0 (http://creativecommons.org/licenses/by/4.0/)",
      "source": "https://sketchfab.com/3d-models/dragon-de-komodo-4e7600fafc8e41fca9cb00f3fa1b3f8d",
      "title": "Dragon De Komodo"
    },
    "generator": "Sketchfab-12.67.0",
    "version": "2.0"
  },
  "bufferViews": [
    {
      "buffer": 0,
      "byteLength": 531768,
      "name": "floatBufferViews",
      "target": 34963
    },
    {
      "buffer": 0,
      "byteLength": 962880,
      "byteOffset": 531768,
      "byteStride": 8,
      "name": "floatBufferViews",
      "target": 34962
    },
    {
      "buffer": 0,
      "byteLength": 577728,
      "byteOffset": 1494648,
      "byteStride": 12,
      "name": "floatBufferViews",
      "target": 34962
    },
    {
      "buffer": 0,
      "byteLength": 385152,
      "byteOffset": 2072376,
      "byteStride": 16,
      "name": "floatBufferViews",
      "target": 34962
    }
  ],
  "buffers": [
    {
      "byteLength": 2457528,
      "uri": "scene.bin"
    }
  ],
  "extensionsRequired": [
    "KHR_materials_pbrSpecularGlossiness"
  ],
  "extensionsUsed": [
    "KHR_materials_pbrSpecularGlossiness"
  ],
  "images": [
    {
      "uri": "textures/material_0_diffuse.png"
    },
    {
      "uri": "textures/material_0_specularGlossiness.png"
    },
    {
      "uri": "textures/material_0_normal.png"
    },
    {
      "uri": "textures/material_0_occlusion.png"
    }
  ],
  "materials": [
    {
      "doubleSided": true,
      "extensions": {
        "KHR_materials_pbrSpecularGlossiness": {
          "diffuseFactor": [
            1.0,
            1.0,
            1.0,
            1.0
          ],
          "diffuseTexture": {
            "index": 0
          },
          "glossinessFactor": 1.0,
          "specularFactor": [
            1.0,
            1.0,
            1.0
          ],
          "specularGlossinessTexture": {
            "index": 1
          }
        }
      },
      "name": "material_0",
      "normalTexture": {
        "index": 2
      },
      "occlusionTexture": {
        "index": 3
      }
    }
  ],
  "meshes": [
    {
      "name": "Object_0",
      "primitives": [
        {
          "attributes": {
            "NORMAL": 1,
            "POSITION": 0,
            "TANGENT": 2,
            "TEXCOORD_0": 3,
            "TEXCOORD_1": 4,
            "TEXCOORD_2": 5,
            "TEXCOORD_3": 6,
            "TEXCOORD_4": 7
          },
          "indices": 8,
          "material": 0,
          "mode": 4
        }
      ]
    }
  ],
  "nodes": [
    {
      "children": [
        1
      ],
      "matrix": [
        1.0,
        0.0,
        0.0,
        0.0,
        0.0,
        2.220446049250313e-16,
        -1.0,
        0.0,
        0.0,
        1.0,
        2.220446049250313e-16,
        0.0,
        0.0,
        0.0,
        0.0,
        1.0
      ],
      "name": "Sketchfab_model"
    },
    {
      "children": [
        2
      ],
      "name": "root"
    },
    {
      "children": [
        3
      ],
      "matrix": [
        1.0,
        0.0,
        0.0,
        0.0,
        0.0,
        2.220446049250313e-16,
        1.0,
        0.0,
        0.0,
        -1.0,
        2.220446049250313e-16,
        0.0,
        0.0,
        0.0,
        0.0,
        1.0
      ],
      "name": "GLTF_SceneRootNode"
    },
    {
      "children": [
        4
      ],
      "matrix": [
        0.009999999776482582,
        0.0,
        0.0,
        0.0,
        0.0,
        0.009999999776482582,
        0.0,
        0.0,
        0.0,
        0.0,
        0.009999999776482582,
        0.0,
        0.0,
        0.0,
        0.0,
        1.0
      ],
      "name": "RootNode.0_0"
    },
    {
      "children": [
        5
      ],
      "name": "komodo_dragon.1_1"
    },
    {
      "mesh": 0,
      "name": "Object_5"
    }
  ],
  "samplers": [
    {
      "magFilter": 9729,
      "minFilter": 9987,
      "wrapS": 10497,
      "wrapT": 10497
    }
  ],
  "scene": 0,
  "scenes": [
    {
      "name": "Sketchfab_Scene",
      "nodes": [
        0
      ]
    }
  ],
  "textures": [
    {
      "sampler": 0,
      "source": 0
    },
    {
      "sampler": 0,
      "source": 1
    },
    {
      "sampler": 0,
      "source": 2
    },
    {
      "sampler": 0,
      "source": 3
    }
  ]
}
