{
  "accessors": [
    {
      "bufferView": 1,
      "componentType": 5126,
      "count": 65532,
      "max": [
        2.575572967529297,
        6.0186638832092285,
        3.2060508728027344
      ],
      "min": [
        0.0266571044921875,
        0.00061798095703125,
        0.8078029155731201
      ],
      "type": "VEC3"
    },
    {
      "bufferView": 1,
      "byteOffset": 786384,
      "componentType": 5126,
      "count": 65532,
      "max": [
        0.9999933242797852,
        0.9761587977409363,
        0.9999749660491943
      ],
      "min": [
        -0.9999878406524658,
        -0.9999545812606812,
        -0.9999967813491821
      ],
      "type": "VEC3"
    },
    {
      "bufferView": 0,
      "componentType": 5125,
      "count": 348834,
      "type": "SCALAR"
    },
    {
      "bufferView": 1,
      "byteOffset": 1572768,
      "componentType": 5126,
      "count": 65532,
      "max": [
        2.8381919860839844,
        6.923376083374023,
        3.202889919281006
      ],
      "min": [
        0.003949999809265137,
        0.0,
        0.0025980472564697266
      ],
      "type": "VEC3"
    },
    {
      "bufferView": 1,
      "byteOffset": 2359152,
      "componentType": 5126,
      "count": 65532,
      "max": [
        0.9999996423721313,
        0.9992944002151489,
        0.9999749660491943
      ],
      "min": [
        -0.9999076128005981,
        -0.9999998807907104,
        -0.9999966621398926
      ],
      "type": "VEC3"
    },
    {
      "bufferView": 0,
      "byteOffset": 1395336,
      "componentType": 5125,
      "count": 339753,
      "type": "SCALAR"
    },
    {
      "bufferView": 1,
      "byteOffset": 3145536,
      "componentType": 5126,
      "count": 24672,
      "max": [
        2.1166880130767822,
        6.847667694091797,
        3.148650884628296
      ],
      "min": [
        0.0,
        0.00019502639770507813,
        0.0
      ],
      "type": "VEC3"
    },
    {
      "bufferView": 1,
      "byteOffset": 3441600,
      "componentType": 5126,
      "count": 24672,
      "max": [
        0.9849129319190979,
        0.9996221661567688,
        0.9972556233406067
      ],
      "min": [
        -0.9999878406524658,
        -0.9999545812606812,
        -0.9996716380119324
      ],
      "type": "VEC3"
    },
    {
      "bufferView": 0,
      "byteOffset": 2754348,
      "componentType": 5125,
      "count": 109815,
      "type": "SCALAR"
    }
  ],
  "asset": {
    "extras": {
      "author": "Ian Christopher (https://sketchfab.com/ianchrisjohn)",
      "license": "CC-BY-4.0 (http://creativecommons.org/licenses/by/4.0/)",
      "source": "https://sketchfab.com/3d-models/dugong-sea-cow-17bdf341fcc047888935f67a05dd2fea",
      "title": "Dugong (Sea Cow)"
    },
    "generator": "Sketchfab-12.67.0",
    "version": "2.0"
  },
  "bufferViews": [
    {
      "buffer": 0,
      "byteLength": 3193608,
      "name": "floatBufferViews",
      "target": 34963
    },
    {
      "buffer": 0,
      "byteLength": 3737664,
      "byteOffset": 3193608,
      "byteStride": 12,
      "name": "floatBufferViews",
      "target": 34962
    }
  ],
  "buffers": [
    {
      "byteLength": 6931272,
      "uri": "scene.bin"
    }
  ],
  "extensionsRequired": [
    "KHR_materials_pbrSpecularGlossiness"
  ],
  "extensionsUsed": [
    "KHR_materials_pbrSpecularGlossiness"
  ],
  "materials": [
    {
      "doubleSided": true,
      "extensions": {
        "KHR_materials_pbrSpecularGlossiness": {
          "diffuseFactor": [
            0.17901507171454986,
            0.1542476946076269,
            0.0660608179985776,
            1.0
          ],
          "glossinessFactor": 0.48951981707317077,
          "specularFactor": [
            0.16672556603113617,
            0.15525414511226218,
            0.15525414511226218
          ]
        }
      },
      "name": "null"
    }
  ],
  "meshes": [
    {
      "name": "Object_0",
      "primitives": [
        {
          "attributes": {
            "NORMAL": 1,
            "POSITION": 0
          },
          "indices": 2,
          "material": 0,
          "mode": 4
        }
      ]
    },
    {
      "name": "Object_1",
      "primitives": [
        {
          "attributes": {
            "NORMAL": 4,
            "POSITION": 3
          },
          "indices": 5,
          "material": 0,
          "mode": 4
        }
      ]
    },
    {
      "name": "Object_2",
      "primitives": [
        {
          "attributes": {
            "NORMAL": 7,
            "POSITION": 6
          },
          "indices": 8,
          "material": 0,
          "mode": 4
        }
      ]
    }
  ],
  "nodes": [
    {
      "children": [
        1
      ],
      "matrix": [
        1.0,
        0.0,
        0.0,
        0.0,
        0.0,
        2.220446049250313e-16,
        -1.0,
        0.0,
        0.0,
        1.0,
        2.220446049250313e-16,
        0.0,
        0.0,
        0.0,
        0.0,
        1.0
      ],
      "name": "Sketchfab_model"
    },
    {
      "children": [
        2
      ],
      "matrix": [
        1.0,
        0.0,
        0.0,
        0.0,
        0.0,
        1.0,
        0.0,
        0.0,
        0.0,
        0.0,
        1.0,
        0.0,
        -1.357287049293518,
        -2.946481943130493,
        -2.215467929840088,
        1.0
      ],
      "name": "Dugong.obj.cleaner.materialmerger.gles"
    },
    {
      "children": [
        3,
        4,
        5
      ],
      "name": "Object_2"
    },
    {
      "mesh": 0,
      "name": "Object_3"
    },
    {
      "mesh": 1,
      "name": "Object_4"
    },
    {
      "mesh": 2,
      "name": "Object_5"
    }
  ],
  "scene": 0,
  "scenes": [
    {
      "name": "Sketchfab_Scene",
      "nodes": [
        0
      ]
    }
  ]
}
