{
  "accessors": [
    {
      "bufferView": 2,
      "componentType": 5126,
      "count": 20598,
      "max": [10.708480834960938, 29.64483642578125, 35.402618408203125],
      "min": [-10.708480834960938, -0.11054611206054688, -14.429656982421875],
      "type": "VEC3"
    },
    {
      "bufferView": 2,
      "byteOffset": 247176,
      "componentType": 5126,
      "count": 20598,
      "max": [0.9999748468399048, 0.9999815225601196, 0.9999148845672607],
      "min": [-0.9999291896820068, -0.9999998807907104, -0.9999669790267944],
      "type": "VEC3"
    },
    {
      "bufferView": 1,
      "componentType": 5126,
      "count": 20598,
      "max": [0.9933859705924988, 0.993698239326477],
      "min": [0.01556643657386303, 0.008027434349060059],
      "type": "VEC2"
    },
    {
      "bufferView": 0,
      "componentType": 5125,
      "count": 118182,
      "type": "SCALAR"
    }
  ],
  "asset": {
    "extras": {
      "author": "SDPM Esare (https://sketchfab.com/sdpm)",
      "license": "CC-BY-4.0 (http://creativecommons.org/licenses/by/4.0/)",
      "source": "https://sketchfab.com/3d-models/elephant-e0755e38063b4de0b152be78c6da99b5",
      "title": "Elephant"
    },
    "generator": "Sketchfab-12.68.0",
    "version": "2.0"
  },
  "bufferViews": [
    {
      "buffer": 0,
      "byteLength": 472728,
      "name": "floatBufferViews",
      "target": 34963
    },
    {
      "buffer": 0,
      "byteLength": 164784,
      "byteOffset": 472728,
      "byteStride": 8,
      "name": "floatBufferViews",
      "target": 34962
    },
    {
      "buffer": 0,
      "byteLength": 494352,
      "byteOffset": 637512,
      "byteStride": 12,
      "name": "floatBufferViews",
      "target": 34962
    }
  ],
  "buffers": [
    {
      "byteLength": 1131864,
      "uri": "scene.bin"
    }
  ],
  "images": [
    {
      "uri": "material_baseColor.png"
    }
  ],
  "materials": [
    {
      "doubleSided": true,
      "name": "material",
      "pbrMetallicRoughness": {
        "baseColorTexture": {
          "index": 0
        }
      }
    }
  ],
  "meshes": [
    {
      "name": "Object_0",
      "primitives": [
        {
          "attributes": {
            "NORMAL": 1,
            "POSITION": 0,
            "TEXCOORD_0": 2
          },
          "indices": 3,
          "material": 0,
          "mode": 4
        }
      ]
    }
  ],
  "nodes": [
    {
      "children": [1],
      "matrix": [
        1.0, 0.0, 0.0, 0.0, 0.0, 2.220446049250313e-16, -1.0, 0.0, 0.0, 1.0,
        2.220446049250313e-16, 0.0, 0.0, 0.0, 0.0, 1.0
      ],
      "name": "Sketchfab_model"
    },
    {
      "children": [2],
      "name": "root"
    },
    {
      "children": [3],
      "matrix": [
        1.0, 0.0, 0.0, 0.0, 0.0, 2.220446049250313e-16, 1.0, 0.0, 0.0, -1.0,
        2.220446049250313e-16, 0.0, 0.0, 0.0, 0.0, 1.0
      ],
      "name": "GLTF_SceneRootNode"
    },
    {
      "children": [4],
      "name": "root_1"
    },
    {
      "children": [5],
      "matrix": [
        8.330248526278252e-8, 0.0, 0.49412047863005887, 0.0, 0.0,
        0.4941205382347107, 0.0, 0.0, -0.49412047863005887, -0.0,
        8.330248526278252e-8, 0.0, 0.18044054508209229, -0.2540978491306305,
        0.4287322461605072, 1.0
      ],
      "name": "node_id30_0"
    },
    {
      "mesh": 0,
      "name": "Object_5"
    }
  ],
  "samplers": [
    {
      "magFilter": 9729,
      "minFilter": 9987,
      "wrapS": 10497,
      "wrapT": 10497
    }
  ],
  "scene": 0,
  "scenes": [
    {
      "name": "Sketchfab_Scene",
      "nodes": [0]
    }
  ],
  "textures": [
    {
      "sampler": 0,
      "source": 0
    }
  ]
}
