{
  "accessors": [
    {
      "bufferView": 2,
      "componentType": 5126,
      "count": 9528,
      "max": [2.438467025756836, 6.775949001312256, 3.775106906890869],
      "min": [-1.54141104221344, -0.01114455983042717, -1.244312047958374],
      "type": "VEC3"
    },
    {
      "bufferView": 2,
      "byteOffset": 114336,
      "componentType": 5126,
      "count": 9528,
      "max": [0.9997766613960266, 0.9999634623527527, 0.9996200203895569],
      "min": [-0.9998868703842163, -0.9999376535415649, -0.9996336102485657],
      "type": "VEC3"
    },
    {
      "bufferView": 1,
      "componentType": 5126,
      "count": 9528,
      "max": [0.9941251873970032, 0.9974912405014038],
      "min": [0.009244607761502266, 0.007870733737945557],
      "type": "VEC2"
    },
    {
      "bufferView": 1,
      "byteOffset": 76224,
      "componentType": 5126,
      "count": 9528,
      "max": [0.9941251873970032, 0.9974912405014038],
      "min": [0.009244607761502266, 0.007870733737945557],
      "type": "VEC2"
    },
    {
      "bufferView": 1,
      "byteOffset": 152448,
      "componentType": 5126,
      "count": 9528,
      "max": [0.9941251873970032, 0.9974912405014038],
      "min": [0.009244607761502266, 0.007870733737945557],
      "type": "VEC2"
    },
    {
      "bufferView": 0,
      "componentType": 5125,
      "count": 49392,
      "type": "SCALAR"
    }
  ],
  "asset": {
    "extras": {
      "author": "nathaniel (https://sketchfab.com/Xfdfgd)",
      "license": "CC-BY-4.0 (http://creativecommons.org/licenses/by/4.0/)",
      "source": "https://sketchfab.com/3d-models/rein-deer-651bd2523ba14cfb85d224a7c9ea9587",
      "title": "Rein Deer"
    },
    "generator": "Sketchfab-15.12.0",
    "version": "2.0"
  },
  "bufferViews": [
    {
      "buffer": 0,
      "byteLength": 197568,
      "name": "floatBufferViews",
      "target": 34963
    },
    {
      "buffer": 0,
      "byteLength": 228672,
      "byteOffset": 197568,
      "byteStride": 8,
      "name": "floatBufferViews",
      "target": 34962
    },
    {
      "buffer": 0,
      "byteLength": 228672,
      "byteOffset": 426240,
      "byteStride": 12,
      "name": "floatBufferViews",
      "target": 34962
    }
  ],
  "buffers": [
    {
      "byteLength": 654912,
      "uri": "scene.bin"
    }
  ],
  "extensionsRequired": ["KHR_materials_pbrSpecularGlossiness"],
  "extensionsUsed": ["KHR_materials_pbrSpecularGlossiness"],
  "images": [
    {
      "uri": "material_diffuse.png"
    },
    {
      "uri": "material_specularGlossiness.png"
    }
  ],
  "materials": [
    {
      "doubleSided": true,
      "extensions": {
        "KHR_materials_pbrSpecularGlossiness": {
          "diffuseFactor": [1.0, 1.0, 1.0, 1.0],
          "diffuseTexture": {
            "index": 0
          },
          "glossinessFactor": 1.0,
          "specularFactor": [1.0, 1.0, 1.0],
          "specularGlossinessTexture": {
            "index": 1
          }
        }
      },
      "name": "material"
    }
  ],
  "meshes": [
    {
      "name": "Object_0",
      "primitives": [
        {
          "attributes": {
            "NORMAL": 1,
            "POSITION": 0,
            "TEXCOORD_0": 2,
            "TEXCOORD_1": 3,
            "TEXCOORD_2": 4
          },
          "indices": 5,
          "material": 0,
          "mode": 4
        }
      ]
    }
  ],
  "nodes": [
    {
      "children": [1],
      "matrix": [
        1.0, 0.0, 0.0, 0.0, 0.0, 2.220446049250313e-16, -1.0, 0.0, 0.0, 1.0,
        2.220446049250313e-16, 0.0, 0.0, 0.0, 0.0, 1.0
      ],
      "name": "Sketchfab_model"
    },
    {
      "children": [2],
      "name": "root"
    },
    {
      "children": [3],
      "matrix": [
        1.0, 0.0, 0.0, 0.0, 0.0, 2.220446049250313e-16, 1.0, 0.0, 0.0, -1.0,
        2.220446049250313e-16, 0.0, 0.0, 0.0, 0.0, 1.0
      ],
      "name": "GLTF_SceneRootNode"
    },
    {
      "children": [4],
      "name": "root_0"
    },
    {
      "children": [5],
      "matrix": [
        0.07543729990720749, 0.0, 0.0, 0.0, 0.0, 0.07543729990720749, 0.0, 0.0,
        0.0, 0.0, 0.07543729990720749, 0.0, -0.021669870242476463,
        -0.1801592856645584, 0.160541370511055, 1.0
      ],
      "name": "node_id138_1"
    },
    {
      "mesh": 0,
      "name": "Object_5"
    }
  ],
  "samplers": [
    {
      "magFilter": 9729,
      "minFilter": 9987,
      "wrapS": 10497,
      "wrapT": 10497
    }
  ],
  "scene": 0,
  "scenes": [
    {
      "name": "Sketchfab_Scene",
      "nodes": [0]
    }
  ],
  "textures": [
    {
      "sampler": 0,
      "source": 0
    },
    {
      "sampler": 0,
      "source": 1
    }
  ]
}
